<?xml version="1.0" encoding="UTF-8"?>
<svg version="1.1" xmlns="http://www.w3.org/2000/svg" width="124" height="118">
<path d="M0 0 C40.92 0 81.84 0 124 0 C124 38.94 124 77.88 124 118 C83.08 118 42.16 118 0 118 C0 79.06 0 40.12 0 0 Z " fill="#0C74DE" transform="translate(0,0)"/>
<path d="M0 0 C40.92 0 81.84 0 124 0 C124 38.94 124 77.88 124 118 C83.08 118 42.16 118 0 118 C0 79.06 0 40.12 0 0 Z M43 14 C41.89205078 14.49306641 41.89205078 14.49306641 40.76171875 14.99609375 C27.90532059 21.41319059 18.77633085 32.57728561 14 46 C10.30780781 59.77757621 12.58032444 74.30711872 19.421875 86.54296875 C26.40173757 97.74452239 37.21780177 106.17942495 50.10546875 109.55078125 C65.75036873 111.97880216 79.97553413 109.97580357 93.01171875 100.5859375 C99.63849979 95.30013573 104.11579154 89.54454323 108 82 C108.62455078 80.82050781 108.62455078 80.82050781 109.26171875 79.6171875 C113.93349669 69.15896179 114.03957325 53.80401534 109.96484375 43.08203125 C109.64644531 42.39496094 109.32804687 41.70789063 109 41 C108.67128906 40.26136719 108.34257813 39.52273437 108.00390625 38.76171875 C103.18900069 29.11524706 95.50536749 21.0605195 86 16 C85.09121094 15.51402344 84.18242188 15.02804688 83.24609375 14.52734375 C71.40586516 9.09868211 54.9965455 8.44062525 43 14 Z " fill="#FCFDFE" transform="translate(0,0)"/>
<path d="M0 0 C8.69517537 4.9521339 17.36684064 9.9402729 26 15 C21.50335545 18.8608485 16.58927757 21.81582737 11.5 24.8125 C10.65824219 25.32748047 9.81648438 25.84246094 8.94921875 26.37304688 C8.13066406 26.85451172 7.31210938 27.33597656 6.46875 27.83203125 C5.73076172 28.27264893 4.99277344 28.7132666 4.23242188 29.16723633 C1.33632554 30.24757148 -0.07147302 29.94022161 -3 29 C-5.5871582 27.69311523 -5.5871582 27.69311523 -8.30078125 26.05859375 C-9.27724609 25.47529297 -10.25371094 24.89199219 -11.25976562 24.29101562 C-12.26716797 23.67935547 -13.27457031 23.06769531 -14.3125 22.4375 C-15.33923828 21.82197266 -16.36597656 21.20644531 -17.42382812 20.57226562 C-19.95320506 19.05463946 -22.47833212 17.53038935 -25 16 C-20.29752735 11.92122373 -15.02616975 8.904154 -9.6875 5.75 C-8.75615234 5.19570313 -7.82480469 4.64140625 -6.86523438 4.0703125 C-4.57879425 2.71017376 -2.29035964 1.35352456 0 0 Z " fill="#F8FBFE" transform="translate(62,35)"/>
<path d="M0 0 C1.32 0.33 2.64 0.66 4 1 C3.67657623 1.76579376 3.35315247 2.53158752 3.01992798 3.32058716 C1.66132313 8.22178434 1.69191434 12.80712599 1.68115234 17.87060547 C1.66608391 19.49588921 1.66608391 19.49588921 1.65071106 21.15400696 C1.61989192 24.72506189 1.60284719 28.29604188 1.5859375 31.8671875 C1.56722486 34.34726607 1.54765138 36.82733829 1.5272522 39.30740356 C1.47593528 45.82735443 1.43630702 52.34732594 1.39910889 58.86737061 C1.36012117 65.5236164 1.30797524 72.17976832 1.2578125 78.8359375 C1.16105834 91.89056362 1.07627646 104.94523899 1 118 C0.67 118 0.34 118 0 118 C0 79.06 0 40.12 0 0 Z " fill="#D3D3D3" transform="translate(0,0)"/>
<path d="M0 0 C4.29 0 8.58 0 13 0 C13 2.64 13 5.28 13 8 C8.71 8 4.42 8 0 8 C0 5.36 0 2.72 0 0 Z " fill="#112138" transform="translate(56,65)"/>
</svg>
